<svg width="24" height="24" viewBox="0 0 24 24" fill="none" xmlns="http://www.w3.org/2000/svg">
<path d="M12 0C5.37277 0 0 5.37277 0 12C0 17.6663 3.92862 22.4123 9.21 23.6705C8.93677 23.6054 8.66585 23.5325 8.4 23.4494V20.7C8.4 20.7 7.95 20.85 7.35 20.85C5.67138 20.85 4.974 19.3523 4.8 18.6C4.69431 18.1417 4.41831 17.7074 4.122 17.442C3.768 17.1263 3.60231 17.1254 3.6 17.0174C3.59538 16.7908 3.90369 16.8 4.05 16.8C4.8 16.8 5.36862 17.598 5.63262 18.0106C6.28662 19.0292 6.98862 19.2 7.35 19.2C7.8 19.2 8.18862 19.1326 8.45631 19.0034C8.58 18.132 8.96769 17.3557 9.6 16.8C6.786 16.2374 4.8 14.6234 4.8 12C4.8 10.6486 5.34231 9.40662 6.246 8.40369C6.15369 8.142 6 7.61262 6 6.75C6 6.18 6.03969 5.48031 6.3 4.8C6.3 4.8 8.01138 4.812 9.62538 6.34062C10.3703 6.12369 11.1674 6 12 6C12.8326 6 13.6297 6.12369 14.3746 6.34062C15.9886 4.812 17.7 4.8 17.7 4.8C17.9617 5.48031 18 6.18 18 6.75C18 7.68 17.8763 8.22231 17.8006 8.45631C18.6766 9.45 19.2 10.6726 19.2 12C19.2 14.6234 17.214 16.2374 14.4 16.8C15.1514 17.46 15.6 18.4214 15.6 19.5V23.4494C15.3342 23.5329 15.0637 23.6054 14.79 23.6705C20.0714 22.4123 24 17.6663 24 12C24 5.37277 18.6272 0 12 0ZM12.8368 23.9677C12.5603 23.9871 12.2815 24 12 24C12.2815 24 12.5598 23.9866 12.8368 23.9677ZM12 24C11.7185 24 11.4397 23.9871 11.1632 23.9677C11.4402 23.9866 11.7185 24 12 24ZM10.9791 23.9538C10.4174 23.9063 9.86631 23.8205 9.32954 23.6982C9.86677 23.82 10.4174 23.9063 10.9791 23.9538Z" fill="black"/>
</svg>
